<svg width="308" height="245" viewBox="0 0 308 245" fill="none" xmlns="http://www.w3.org/2000/svg">
<g clip-path="url(#clip0_129_39)">
<path d="M63.8064 0C46.278 0 33.3072 15.342 33.888 31.98C34.446 47.964 33.7212 68.6676 28.5096 85.5504C23.2824 102.482 14.4408 113.208 0 114.586V130.133C14.4408 131.51 23.2824 142.236 28.5096 159.169C33.7212 176.052 34.446 196.753 33.888 212.738C33.3072 229.374 46.278 244.718 63.8088 244.718H243.416C260.946 244.718 273.913 229.376 273.332 212.738C272.776 196.754 273.499 176.052 278.711 159.169C283.942 142.237 292.759 131.509 307.2 130.133V114.586C292.759 113.208 283.942 102.482 278.712 85.5504C273.499 68.67 272.776 47.9652 273.332 31.98C273.913 15.3444 260.946 0 243.416 0H63.804H63.8064ZM208.272 150.64C208.272 173.55 191.184 187.444 162.826 187.444H114.55C113.169 187.443 111.845 186.895 110.869 185.918C109.892 184.942 109.344 183.618 109.344 182.237V62.4816C109.344 61.7977 109.478 61.1205 109.74 60.4887C110.002 59.8568 110.385 59.2827 110.869 58.7991C111.352 58.3154 111.926 57.9318 112.558 57.6701C113.19 57.4083 113.867 57.2736 114.551 57.2736H162.55C186.196 57.2736 201.714 70.0836 201.714 89.7492C201.714 103.553 191.274 115.91 177.974 118.074V118.795C196.081 120.781 208.272 133.32 208.272 150.64ZM157.56 73.7796H130.036V112.66H153.22C171.14 112.66 181.024 105.443 181.024 92.5428C181.024 80.4552 172.524 73.7796 157.56 73.7796ZM130.036 128.087V170.933H158.574C177.232 170.933 187.117 163.446 187.117 149.375C187.117 135.301 176.957 128.084 157.374 128.084H130.036V128.087Z" fill="#7E13F8"/>
</g>
<defs>
<clipPath id="clip0_129_39">
<rect width="307.2" height="244.8" fill="white"/>
</clipPath>
</defs>
</svg>
