<svg width="27" height="27" viewBox="0 0 27 27" fill="none" xmlns="http://www.w3.org/2000/svg">
<path d="M21.375 3.375C21.9717 3.375 22.544 3.61205 22.966 4.03401C23.3879 4.45597 23.625 5.02826 23.625 5.625V21.375C23.625 21.9717 23.3879 22.544 22.966 22.966C22.544 23.3879 21.9717 23.625 21.375 23.625H5.625C5.02826 23.625 4.45597 23.3879 4.03401 22.966C3.61205 22.544 3.375 21.9717 3.375 21.375V5.625C3.375 5.02826 3.61205 4.45597 4.03401 4.03401C4.45597 3.61205 5.02826 3.375 5.625 3.375H21.375ZM20.8125 20.8125V14.85C20.8125 13.8773 20.4261 12.9445 19.7383 12.2567C19.0505 11.5689 18.1177 11.1825 17.145 11.1825C16.1887 11.1825 15.075 11.7675 14.535 12.645V11.3963H11.3963V20.8125H14.535V15.2662C14.535 14.4 15.2325 13.6913 16.0988 13.6913C16.5165 13.6913 16.9171 13.8572 17.2124 14.1526C17.5078 14.4479 17.6738 14.8485 17.6738 15.2662V20.8125H20.8125ZM7.74 9.63C8.24126 9.63 8.72199 9.43088 9.07643 9.07643C9.43088 8.72199 9.63 8.24126 9.63 7.74C9.63 6.69375 8.78625 5.83875 7.74 5.83875C7.23576 5.83875 6.75217 6.03906 6.39561 6.39561C6.03906 6.75217 5.83875 7.23576 5.83875 7.74C5.83875 8.78625 6.69375 9.63 7.74 9.63ZM9.30375 20.8125V11.3963H6.1875V20.8125H9.30375Z" fill="#101828"/>
</svg>
