<svg width="384" height="384" viewBox="0 0 384 384" fill="none" xmlns="http://www.w3.org/2000/svg">
<path d="M0 192C0 247.779 85.962 293.001 192 293.001C298.038 293.001 384 247.779 384 192C384 136.221 298.035 90.999 192 90.999C85.962 90.999 0 136.221 0 192Z" fill="url(#paint0_radial_129_41)"/>
<path d="M192 285.501C293.895 285.501 376.5 243.636 376.5 192C376.5 140.358 293.895 98.499 192 98.499C90.105 98.499 7.5 140.358 7.5 192C7.5 243.636 90.105 285.501 192 285.501Z" fill="#777BB3"/>
<path d="M104.315 203.592C112.694 203.592 118.946 202.047 122.903 199.002C126.821 195.984 129.524 190.761 130.943 183.477C132.263 176.667 131.759 171.915 129.443 169.347C127.079 166.725 121.964 165.396 114.242 165.396H100.85L93.4307 203.592H104.315ZM60.5177 250.641C60.2104 250.64 59.907 250.572 59.6294 250.44C59.3517 250.309 59.1065 250.118 58.9115 249.88C58.7165 249.643 58.5765 249.365 58.5015 249.067C58.4265 248.769 58.4183 248.458 58.4777 248.157L78.1487 146.943C78.2416 146.47 78.4957 146.043 78.8677 145.736C79.2396 145.43 79.7065 145.261 80.1887 145.26H122.591C135.917 145.26 145.835 148.878 152.072 156.015C158.336 163.185 160.274 173.217 157.823 185.82C156.824 190.953 155.108 195.72 152.723 199.992C150.24 204.386 147.072 208.356 143.339 211.752C138.746 216.048 133.547 219.168 127.898 221.001C122.342 222.813 115.202 223.731 106.688 223.731H89.5157L84.6137 248.955C84.5211 249.429 84.2664 249.857 83.8931 250.165C83.5199 250.472 83.0513 250.641 82.5677 250.641H60.5177Z" fill="black"/>
<path d="M102.571 167.477H114.244C123.565 167.477 126.802 169.523 127.903 170.744C129.724 172.766 130.072 177.035 128.896 183.08C127.579 189.851 125.137 194.654 121.636 197.348C118.054 200.108 112.222 201.506 104.317 201.506H95.9588L102.574 167.48L102.571 167.477ZM122.593 143.177H80.1938C79.2269 143.177 78.2901 143.513 77.5437 144.128C76.7972 144.742 76.2875 145.597 76.1018 146.546L56.4308 247.763C56.3146 248.366 56.333 248.987 56.4847 249.582C56.6363 250.177 56.9175 250.731 57.3082 251.205C57.6988 251.678 58.1892 252.06 58.7444 252.322C59.2995 252.585 59.9058 252.721 60.5198 252.722H82.5698C83.5366 252.721 84.473 252.384 85.2189 251.769C85.9648 251.154 86.4738 250.299 86.6588 249.35L91.2338 225.812H106.687C115.423 225.812 122.779 224.858 128.548 222.98C134.479 221.054 139.936 217.787 144.766 213.269C148.655 209.727 151.955 205.588 154.543 201.008C157.036 196.547 158.83 191.567 159.868 186.215C162.448 172.946 160.351 162.323 153.64 154.643C146.992 147.032 136.546 143.174 122.593 143.174V143.177ZM90.9038 205.67H104.317C113.206 205.67 119.827 203.999 124.177 200.645C128.53 197.297 131.461 191.705 132.991 183.872C134.446 176.348 133.783 171.041 130.996 167.948C128.203 164.858 122.623 163.31 114.244 163.31H99.1358L90.9038 205.67ZM122.596 147.335C135.352 147.335 144.655 150.686 150.505 157.379C156.355 164.075 158.113 173.42 155.785 185.417C154.819 190.361 153.196 194.879 150.91 198.971C148.618 203.069 145.63 206.813 141.937 210.212C137.533 214.331 132.646 217.268 127.261 219.017C121.879 220.769 115.021 221.642 106.69 221.642H87.8018L82.5728 248.552H60.5228L80.1968 147.335H122.596Z" fill="white"/>
<path d="M208.377 223.731C208.07 223.731 207.766 223.663 207.488 223.532C207.21 223.401 206.964 223.21 206.768 222.973C206.573 222.736 206.432 222.458 206.356 222.16C206.281 221.862 206.272 221.551 206.331 221.25L215.031 176.466C215.862 172.206 215.658 169.152 214.461 167.856C213.726 167.067 211.524 165.744 205.011 165.744H189.243L178.305 222.048C178.211 222.522 177.956 222.948 177.582 223.255C177.208 223.561 176.739 223.728 176.256 223.728H154.386C154.079 223.728 153.775 223.66 153.497 223.529C153.219 223.399 152.974 223.208 152.778 222.971C152.582 222.734 152.441 222.457 152.365 222.16C152.289 221.862 152.279 221.551 152.337 221.25L172.011 120.033C172.104 119.558 172.359 119.131 172.733 118.824C173.106 118.517 173.574 118.35 174.057 118.35H195.927C196.234 118.349 196.538 118.417 196.816 118.548C197.094 118.679 197.34 118.869 197.535 119.106C197.731 119.343 197.872 119.62 197.948 119.917C198.025 120.215 198.034 120.526 197.976 120.828L193.23 145.26H210.189C223.11 145.26 231.87 147.534 236.973 152.223C242.172 157.002 243.798 164.643 241.797 174.942L232.644 222.048C232.55 222.521 232.295 222.948 231.922 223.254C231.549 223.56 231.081 223.728 230.598 223.728H208.377V223.731Z" fill="black"/>
<path d="M195.929 116.265H174.056C173.088 116.265 172.151 116.601 171.405 117.217C170.658 117.832 170.149 118.687 169.964 119.637L150.293 220.851C150.176 221.454 150.194 222.075 150.345 222.671C150.497 223.266 150.778 223.82 151.169 224.295C151.559 224.769 152.05 225.151 152.605 225.413C153.161 225.675 153.767 225.812 154.382 225.813H176.255C177.222 225.812 178.159 225.476 178.906 224.861C179.652 224.246 180.162 223.39 180.347 222.441L190.958 167.826H205.004C211.508 167.826 212.876 169.215 212.927 169.278C213.323 169.698 213.842 171.663 212.984 176.07L204.284 220.851C204.167 221.454 204.185 222.076 204.337 222.671C204.488 223.267 204.77 223.822 205.161 224.296C205.552 224.77 206.043 225.152 206.598 225.414C207.154 225.676 207.761 225.812 208.376 225.813H230.6C231.566 225.812 232.503 225.475 233.249 224.86C233.995 224.245 234.504 223.39 234.689 222.441L243.842 175.341C245.987 164.283 244.151 155.991 238.382 150.69C232.874 145.632 223.652 143.175 210.188 143.175H195.758L200.021 121.23C200.138 120.626 200.12 120.004 199.969 119.408C199.817 118.812 199.536 118.257 199.145 117.783C198.754 117.308 198.263 116.926 197.707 116.663C197.151 116.401 196.544 116.265 195.929 116.265ZM195.929 120.435L190.7 147.339H210.188C222.449 147.339 230.909 149.481 235.559 153.759C240.218 158.037 241.61 164.964 239.753 174.549L230.597 221.646H208.376L217.079 176.862C218.069 171.768 217.703 168.294 215.984 166.44C214.265 164.589 210.605 163.662 205.01 163.662H187.523L176.255 221.643H154.379L174.053 120.426H195.929V120.435Z" fill="white"/>
<path d="M276.408 203.592C284.787 203.592 291.042 202.047 295.002 199.002C298.914 195.984 301.62 190.761 303.039 183.477C304.359 176.667 303.858 171.915 301.539 169.347C299.175 166.725 294.06 165.396 286.338 165.396H272.949L265.524 203.592H276.408ZM232.62 250.641C232.313 250.641 232.009 250.573 231.73 250.442C231.452 250.311 231.206 250.12 231.01 249.882C230.814 249.645 230.674 249.367 230.599 249.069C230.523 248.77 230.515 248.459 230.574 248.157L250.245 146.943C250.339 146.469 250.593 146.042 250.967 145.735C251.34 145.428 251.808 145.26 252.291 145.26H294.69C308.016 145.26 317.934 148.878 324.168 156.015C330.435 163.185 332.37 173.217 329.919 185.82C328.983 190.784 327.262 195.568 324.822 199.992C322.339 204.385 319.171 208.355 315.438 211.752C310.848 216.048 305.643 219.168 299.997 221.001C294.441 222.813 287.301 223.731 278.784 223.731H261.615L256.716 248.955C256.624 249.43 256.369 249.858 255.995 250.166C255.621 250.473 255.151 250.641 254.667 250.641H232.62Z" fill="black"/>
<defs>
<radialGradient id="paint0_radial_129_41" cx="0" cy="0" r="1" gradientUnits="userSpaceOnUse" gradientTransform="translate(115.278 126.507) scale(252.124 252.124)">
<stop stop-color="#AEB2D5"/>
<stop offset="0.3" stop-color="#AEB2D5"/>
<stop offset="0.75" stop-color="#484C89"/>
<stop offset="1" stop-color="#484C89"/>
</radialGradient>
</defs>
</svg>
