<svg width="24" height="24" viewBox="0 0 24 24" fill="none" xmlns="http://www.w3.org/2000/svg">
<path d="M21.99 6.547C21.9817 6.11797 21.9473 5.68985 21.887 5.265C21.8152 4.8871 21.6931 4.52052 21.524 4.175C21.1539 3.4443 20.5605 2.85057 19.83 2.48C19.4867 2.31171 19.1225 2.18997 18.747 2.118C18.3189 2.05648 17.8874 2.02142 17.455 2.013C17.272 2.006 17.035 2.003 16.925 2.003L7.077 2C6.967 2 6.73 2.003 6.547 2.01C6.11797 2.01827 5.68984 2.05266 5.265 2.113C4.8871 2.18484 4.52052 2.30692 4.175 2.476C3.44434 2.8462 2.85063 3.43956 2.48 4.17C2.31176 4.51332 2.19002 4.87752 2.118 5.253C2.0562 5.68108 2.0208 6.11257 2.012 6.545C2.006 6.728 2.002 6.965 2.002 7.075L2 16.923C2 17.033 2.003 17.27 2.01 17.453C2.01827 17.882 2.05266 18.3102 2.113 18.735C2.18485 19.1129 2.30693 19.4795 2.476 19.825C2.8462 20.5557 3.43956 21.1494 4.17 21.52C4.51332 21.6882 4.87753 21.81 5.253 21.882C5.6811 21.9435 6.11258 21.9786 6.545 21.987C6.728 21.994 6.965 21.997 7.075 21.997L16.923 21.999C17.033 21.999 17.27 21.996 17.453 21.989C17.882 21.9807 18.3102 21.9463 18.735 21.886C19.1129 21.8141 19.4795 21.692 19.825 21.523C20.556 21.153 21.1501 20.5596 21.521 19.829C21.6893 19.4857 21.811 19.1215 21.883 18.746C21.9448 18.3179 21.9802 17.8864 21.989 17.454C21.995 17.271 21.999 17.034 21.999 16.924L22 7.077C22 6.967 21.997 6.73 21.99 6.547ZM12.217 18.957H12.214C11.0237 18.9568 9.85235 18.6583 8.807 18.089L5.027 19.08L6.039 15.387C5.25545 14.0273 4.94237 12.4471 5.1483 10.8914C5.35423 9.33566 6.06765 7.89133 7.17797 6.78233C8.28829 5.67333 9.73347 4.96162 11.2894 4.75755C12.8454 4.55347 14.4252 4.86843 15.784 5.65359C17.1427 6.43876 18.2045 7.65026 18.8046 9.10026C19.4048 10.5503 19.5098 12.1578 19.1034 13.6735C18.697 15.1893 17.8018 16.5286 16.5568 17.4839C15.3117 18.4391 13.7863 18.9569 12.217 18.957Z" fill="#101828"/>
<path d="M12.2197 5.90139C11.1608 5.90108 10.1212 6.18447 9.20888 6.72208C8.29659 7.25969 7.54498 8.03189 7.03223 8.95838C6.51948 9.88487 6.2643 10.9318 6.29323 11.9903C6.32216 13.0489 6.63415 14.0803 7.19675 14.9774L7.33775 15.2014L6.73875 17.3874L8.98175 16.7994L9.19775 16.9274C10.1108 17.4682 11.1525 17.7535 12.2137 17.7534H12.2167C13.7886 17.7537 15.2961 17.1295 16.4077 16.0183C17.5193 14.907 18.144 13.3997 18.1442 11.8279C18.1445 10.2561 17.5204 8.74855 16.4091 7.63693C15.2979 6.52531 13.7906 5.90066 12.2187 5.90039L12.2197 5.90139ZM15.7037 14.3714C15.5727 14.5879 15.3982 14.7749 15.1914 14.9206C14.9845 15.0664 14.7497 15.1678 14.5017 15.2184C14.1274 15.2826 13.7432 15.2586 13.3797 15.1484C13.035 15.041 12.6962 14.9155 12.3647 14.7724C11.1345 14.155 10.0858 13.2283 9.32175 12.0834C8.90492 11.5534 8.65191 10.9132 8.59375 10.2414C8.58895 9.9641 8.64195 9.68886 8.74938 9.43319C8.85682 9.17751 9.01633 8.94702 9.21775 8.75639C9.27727 8.68848 9.3502 8.63362 9.43194 8.59524C9.51368 8.55687 9.60248 8.53581 9.69275 8.53339C9.81075 8.53339 9.92975 8.53339 10.0337 8.53939C10.1437 8.54439 10.2897 8.49739 10.4337 8.84539C10.5837 9.20139 10.9397 10.0784 10.9837 10.1674C11.012 10.214 11.0282 10.267 11.0308 10.3215C11.0334 10.376 11.0224 10.4302 10.9987 10.4794C10.9539 10.5864 10.8939 10.6864 10.8207 10.7764C10.7307 10.8804 10.6337 11.0084 10.5537 11.0884C10.4637 11.1774 10.3717 11.2734 10.4747 11.4514C10.7423 11.9094 11.0762 12.3253 11.4657 12.6854C11.8884 13.0611 12.3733 13.3603 12.8987 13.5694C13.0767 13.6594 13.1807 13.6434 13.2847 13.5244C13.3887 13.4054 13.7297 13.0044 13.8487 12.8264C13.9677 12.6484 14.0857 12.6784 14.2487 12.7374C14.4117 12.7964 15.2887 13.2274 15.4667 13.3174C15.6447 13.4074 15.7637 13.4504 15.8077 13.5244C15.8565 13.8108 15.8204 14.1053 15.7037 14.3714Z" fill="#101828"/>
</svg>
